<mxfile host="app.diagrams.net" modified="2024-05-24T11:54:54.703Z" agent="Mozilla/5.0 (Windows NT 10.0; Win64; x64) AppleWebKit/537.36 (KHTML, like Gecko) Chrome/121.0.0.0 Safari/537.36" etag="oW9Vz2jI4ZSJrUuxANkp" version="24.4.7" type="device">
  <diagram name="PÃ¡gina-1" id="AUBx1bhfaXaNfkPUWzMW">
    <mxGraphModel dx="2049" dy="1471" grid="1" gridSize="10" guides="1" tooltips="1" connect="1" arrows="1" fold="1" page="0" pageScale="1" pageWidth="827" pageHeight="1169" math="0" shadow="0">
      <root>
        <mxCell id="0" />
        <mxCell id="1" parent="0" />
        <mxCell id="sP4CSlVblWdoWq-8Veq8-3" value="" style="rounded=0;whiteSpace=wrap;html=1;rotation=90;fillColor=#f5f5f5;strokeColor=#666666;gradientColor=#b3b3b3;" vertex="1" parent="1">
          <mxGeometry x="225" y="-235" width="810" height="500" as="geometry" />
        </mxCell>
        <mxCell id="sP4CSlVblWdoWq-8Veq8-5" value="" style="rounded=0;whiteSpace=wrap;html=1;rotation=90;fillColor=#C4C4C4;" vertex="1" parent="1">
          <mxGeometry x="830" y="-350" width="85" height="11.25" as="geometry" />
        </mxCell>
        <mxCell id="sP4CSlVblWdoWq-8Veq8-6" value="" style="whiteSpace=wrap;html=1;aspect=fixed;" vertex="1" parent="1">
          <mxGeometry x="440" y="-338.75" width="80" height="80" as="geometry" />
        </mxCell>
        <mxCell id="sP4CSlVblWdoWq-8Veq8-7" value="" style="whiteSpace=wrap;html=1;aspect=fixed;" vertex="1" parent="1">
          <mxGeometry x="580" y="-338.75" width="80" height="80" as="geometry" />
        </mxCell>
        <mxCell id="sP4CSlVblWdoWq-8Veq8-9" value="" style="whiteSpace=wrap;html=1;aspect=fixed;" vertex="1" parent="1">
          <mxGeometry x="720" y="-338.75" width="80" height="80" as="geometry" />
        </mxCell>
        <mxCell id="sP4CSlVblWdoWq-8Veq8-10" value="" style="whiteSpace=wrap;html=1;aspect=fixed;" vertex="1" parent="1">
          <mxGeometry x="440" y="-200" width="80" height="80" as="geometry" />
        </mxCell>
        <mxCell id="sP4CSlVblWdoWq-8Veq8-11" value="" style="whiteSpace=wrap;html=1;aspect=fixed;" vertex="1" parent="1">
          <mxGeometry x="580" y="-200" width="80" height="80" as="geometry" />
        </mxCell>
        <mxCell id="sP4CSlVblWdoWq-8Veq8-12" value="" style="whiteSpace=wrap;html=1;aspect=fixed;" vertex="1" parent="1">
          <mxGeometry x="580" y="80" width="80" height="80" as="geometry" />
        </mxCell>
        <mxCell id="sP4CSlVblWdoWq-8Veq8-13" value="" style="whiteSpace=wrap;html=1;aspect=fixed;" vertex="1" parent="1">
          <mxGeometry x="440" y="80" width="80" height="80" as="geometry" />
        </mxCell>
        <mxCell id="sP4CSlVblWdoWq-8Veq8-14" value="" style="whiteSpace=wrap;html=1;aspect=fixed;" vertex="1" parent="1">
          <mxGeometry x="720" y="-60" width="80" height="80" as="geometry" />
        </mxCell>
        <mxCell id="sP4CSlVblWdoWq-8Veq8-15" value="" style="whiteSpace=wrap;html=1;aspect=fixed;" vertex="1" parent="1">
          <mxGeometry x="580" y="-60" width="80" height="80" as="geometry" />
        </mxCell>
        <mxCell id="sP4CSlVblWdoWq-8Veq8-16" value="" style="whiteSpace=wrap;html=1;aspect=fixed;" vertex="1" parent="1">
          <mxGeometry x="440" y="-60" width="80" height="80" as="geometry" />
        </mxCell>
        <mxCell id="sP4CSlVblWdoWq-8Veq8-17" value="" style="whiteSpace=wrap;html=1;aspect=fixed;" vertex="1" parent="1">
          <mxGeometry x="720" y="-200" width="80" height="80" as="geometry" />
        </mxCell>
        <mxCell id="sP4CSlVblWdoWq-8Veq8-18" value="" style="whiteSpace=wrap;html=1;aspect=fixed;" vertex="1" parent="1">
          <mxGeometry x="720" y="80" width="80" height="80" as="geometry" />
        </mxCell>
        <mxCell id="sP4CSlVblWdoWq-8Veq8-19" value="&lt;h1&gt;&lt;font face=&quot;Tahoma&quot; color=&quot;#ffffff&quot; style=&quot;font-size: 22px;&quot;&gt;Adicionar ao carrinho&lt;/font&gt;&lt;/h1&gt;" style="rounded=1;whiteSpace=wrap;html=1;fillColor=#f8cecc;gradientColor=#ea6b66;strokeColor=#b85450;" vertex="1" parent="1">
          <mxGeometry x="477.5" y="270" width="285" height="90" as="geometry" />
        </mxCell>
        <mxCell id="sP4CSlVblWdoWq-8Veq8-20" value="" style="shape=image;verticalLabelPosition=bottom;verticalAlign=top;imageAspect=0;aspect=fixed;image=data:image/png,iVBORw0KGgoAAAANSUhEUgAAASwAAADhCAMAAABFoniZAAAC9FBMVEVHcEwrJiQrKSgrKSkrKykqKSkrKikqKSgrKikrKikrKigrKSgqKSgrKygqJyc9PTgsLCkrKSkqKikrKikuLSwvLSwsKyorKiktLCssKikqKigqKigqKikrKicrKSgrKikvLiwuLSssKykoJyYpKSguLCsrKigqKSksLCwqKigrKikqKigpKSkrKSkrKikvLi0rKikqKSgmJiYxMTErKSgrKikqKioqKSktKyorKyoqKCgqKikwLywqKikrKyYqKCgrKikqKSkqKSgpKSkqKSgrKigpKCgqKSgvLCQqKScqKSgqKikrKiktLCoqKSkqKigrKigrKScrKiYpKCgrKSkrKSgqKSgoKCgqKSgrKSkrKikqKikwMSUrKSgoKCgqKigqKikqKSkpKSkcHBwrKSgHAAArKikrKygrKicqKikqKigrKSkrKSkrKSgqKSkrKSkrKSgrKSgqKigqKCgqKikqKigqKSgqKigpKSkqKSgrKigrKiksKyorKCgrJyUrKSgsKykrKSkrKiorJiEnJiYqKSkpKSkqKSgrKSkrKSgrKikqKSkqKigqKSgqKSgqKSkqKigqKSgmJiYlJSUpKSkrKSgqKikqKSkrKScrKigqKiopKSkqKSkpKSkrKykrKScjIiEqKiguLiwrKSkqKigrKigqKSkqKSgqKSgrKSgrKikrKikqKSgqKSgrKSgqKigqKikqKSgrKSgqKikqKigqKiguLiwrKSgqKSkqKSgsKykqKSkqKSkrKSkqKigtKCgrKSgqKSkrKSgqKigrKSgsLCwqKigrKSgrKSgrKikrKSkrKSkpKSkqKSgrKSgqKSgsKikrKikeHh4qKSgrKSgqKioqKikrKigqKSgqKSkqKSgoKCgqKigrKykqKigqKSkqKikqKSkrKigqKikrKSkwLy0qKSkrKSkmICAsKysrKigqKSkrKSkqKikqKSgrKCgqKiUqKSgrKykrKygqKSgsLCorKSgrKSkrKyozMjEsKyorKSlIYh8lAAAA/HRSTlMAFEJ0pc/q+vvu1LCDUiUDG22/9v//////4alkIjOe8f//+B8v/65OEI/6cBFP3v/lfBIEkuQdxP/NQ+MJQC0+801bF+LBKoUCOfls0v/XiEssIDCHyOgLXo3sZQ62GHcosRwHvAHwUSfFtZT4mX915mBrN9vAlYk159nt/VAab/K4rwgZXCN5Z5f8plmL3b5y1gwTHjI6PT9FR0hJPC4mDZAVgaLH0e70+P3389zUuinp2rOchA/sYu3/uZp6VzdK0PKWnwp+4KRUc9Uk78J2/8YG46oWU9/KoM8Fivyny+mOzu+G/6tRDvK7rVXM4WNHaZNjav/Opd//+cjbBQHxAAAgMElEQVR4AezTg5pcSxAA4Frb1VW9tnHWtm3b17ZvsoidPG+MPrOnZ2c+Bd3/O/xgipDQsPCIyKjomNi4+ITEJLB0klNS01AgETOTRKT0jMwssDxk5+Tm5ROrCLEgNaUQLLeiDELii6g4L62k1H5UlJVXIOsQYmxlFVivVNc4xP7IvNq6erAAGhpR8mXIaUpJAuM1tzgciFanrR0Ml92BHCApGzvBZF25xRw4J6IbzNXTKzkYmNsHpirKlRwcKfvBTAODxRwsktVgpCHk4MneYTDQiMNeiNgvbBsF44xJYl8SJY9HEaJkPWcCTJM0mc8+pnB6ZnaucH4hYXGJBLHG1PIKGCbFYR/YsdoAbxStrTvE3sQGmGUzkthNbA2AanumF9lTfguYZcdhN5EBvnb3kNgDje+DSQ46JLvg4RFclHmM7AGrwSSfIbvIjnrw8vkXDl8kwsAkXyK7yFDwlvQVEvsSI2CQ/a+JVeIb0NqIluxDfAsG+U6wiiLLQK/re2Q3/AEMMilZlfcj+JPV5rAL7YI5fpKskj83gF8rJQ4r8BcwyK+CVWIVLvMbtvIb1Po7mKPzD2KF/DMJLvXDX04x8XOEf/8ABvkHWSUyIQD//jf0v0TE8StjYJKryArZdAKBOe06+6H0HIwykEascK6BpXVdsIKOQ8DSailmhbgBllbiTVYVh4KlVedeuNwJllasZAXeAksrW7IKb4Oldce9MG0ALJ2ku5IVeA8srR7JKnEfLK1fkVV/z4Glc9DUygr54Ag+FEcHDx+dPj7f7X7y+7P27jguxqxtHPiFZ5OFMOc+57wgrQar1qCQFLsSAkoAFFrW2g9KrHgsDyxJrUhRRBGqSlYJqwIi8bC8gs2GtWu9Ec9ar93f8/zzm51pzD175sw9M9XM+P32+9f7+fR+7NPpvu9zznVd5zoJ23c09ExMTNpZY5fSzqTERE/vHcl+EfG7h+wZO8unV8paB6hXiXIiJqSCFYXs3ePnP2nVPve0NR/vP7B88ISD6Rn2BCtRPqxEMhtnZR+c0D/nUL++uZ3TPhsXHBm9M/zwypRhUJc6ICLmlARW4Ho4aeq+DqvfGeyYiSlCAkLIiVKKVYgxsBpVQn8QEKKYyL4+Mj4v/+ii5n7tCuo+7IePpYBF+fgdj5n57glC1b8e/obUJYypeuw97O0OnSwsKj7V0gHMdxoRMTQTLKZrwqq0M2cpUj0D9Q2rn1gsy/n4XCvPTm5gjvOIiAmRYBEl2y+ctKP1P0wMTJ0Qohk508cUDwkB03hNwEQsqgXUv7jitMFUe+DMCjBFAiIX5y3YtdL8t5COhPrmsKvUDiFMbABGgvzD8amXtpk3Fwrv1/dDVXbZ2iPFPGNINn5pUleT50Ii3wX1qeuFCQpKbA6mArVbE3nFtBUp/mcB1KPj/6XApK4gJAhIQ/1/1+6VRMOvBgeAAfMREUOrof7MyhNo7RZLlGhlzJ88rlnP4GtlsbGxja4VXTi6NLUwHev+9gJCcorxt8Y/YPj6iDjguPHflIgJZVBvtvfuaMb3RIlGHTvy6Zr5zVoVR2dgomG/Hhh5iLxBzw1a1Wzjzc0H+p8lFCnJqTELXqqYEMzZHO+gRAeOh/qy6z1q6tSOmxya/nlwcUIL19mg9iklGsJRYCxCeva4a8tnJN9qtbS09ehjmRQJiHpgiUOnrV1Bn1SBiNHbblBP4rMoMRrFx+7cDf5iAFOnuUEgGvQ7YBzOJG/QA+z0ssd70oI03+4yjARDq2FF62HAGraYEjGUBvWk4jIiRqP32ruCXs6YvPH9XGBcpkQDZ7QE/Spanhq0oPL+A/6QKS4BK4ISHWgS1JOpCmI89BA4Zo+mBiO67oi8gfzBoGkBzXtW/vDIA7Ejhu4Cq5lAxL7tNhbqyQFKDBP3kMBNCoDBfDdQa2D4iz9aP4IRGvi1/dx3AtYdMZQHrO8oEaMHoJ6MxcQg2vHv+QNLkXSBqqfoPctayX6V5mBzEi/T4o+f2/+ICmgUUfkpBhgzVhAdgjvUk2LB8FOVU+YD4E05RZfMvp8/pKsR0cBTtoIpGgxs9PgrjJDQEe0PAkaZQHSgL6Ce3EOETzHBpQSUHHIoqRG1Bzg2IaKBOgPDRSBv0HAwVcWQn1ttaOU5G1hL5MRC2dXp1MBjle/DfEKFZtxnVPToHHwCfxaAyRtCK6g767IwEaP7ob5cxoSD/k+0ns8C/YoX/C0XbWnQR+xiaDnV/rgN1J1JiOgQlkJ9CeUNlrx3vN4yMXkicFSJ3sN8g4sHuhjqzlNELBWeOcYZLDphLlOAKFHJs0q0iB/sBroc1hbLRVHf8IKtIcOgLmydgokYzm5g6ScLd/PTnZCyMVHDZ3mb/z1RorFOhml9nBs+i9xwr/Dm9KvVW77q/4CIpE9Z9jzn0J0leZvODW304ovkIUFeYJ5/yYkO2hfqzWhM9BGuga42SDpxsl+01Hq+xS5Lk2dE6nwrERElEgWEECXZvUdWpY375fSAchMfuJcCUWFWvPVgMyV60HeZ0AQiNeSc2cah5V0kDk5gbGJkzAkJSI4dl1fNL/OfsRX4mHlDTL4T6k0+InqgYia+NpiSGjiAWZ63nxQz/Ygss84SYk4ktG/hiB1BIGk3Jhb7ZME1RFi4R4iBujohBrQmxv967voUJkxQJ9kKevaH86+2twNDrglEB70O9ecjRFioAzACsXaquwEq5YkLVvfGbGygbkesW+u1wNcaER1CDNSfFpiw9G6Xq7UbxF0ArolHfR9RAWFiJvRn6moTwqDZWyUPoGihLlB/KiZgwvjfcIPLKHpyUZ4dFSg26euNdLKSw5/eLTzn/v7DyZPfdz+Xn9ZmZm7f18t7H8yomUEpxkZtX54hosIEPOrHTMT+blFXgLVS+0fERmZjsQdVfczS+5+p+m3ytbAzVJvV6AOM2V69tg0Y2DxyQeG81/2zPJCAiRLaaHw9CKGv6/A5erK3z/rDAwLjA8amgNorgf0dZS2lz6dJw1h2++rffpy6y3mlF6gEiwKEbcEgrz5+0T1Vi0AUCVwVFynRYkbWdG4N5iZ/EtnT/W/Trx+6/WBOVhT5FmM8fELfC6o/7rbhzEOCM/pIzgXSqHt4ywomWM6bQ/i7TeoHXBEeRBcaBGYJmXXqUmzq0/1fzSG0Zp1MPbCS5jOiaHIclE6yY5B5GBhXin7A0pMXJW+gl+yD8JyaUufS9Z+Y3V7pKBIIqV2pUUingZOabbr+XIbVkww37zsK7dD/wFBv0OXQZc17CipR9oKyDp3PE+14QtkpPw1pn95ZICWBsok1XUsQ0UFzhoGx1rY4HVvoezFD/VnFRApSbTrPMKOApoKYTyPD9TUYCXRZ7j7/bQB7/pcZcrFoxIa8+EYIhBD0G7DYEJpJgbKuEb+6bx4cRQ2NEgNPYU5hs5/JualTFIbCqR09+jeN9UvRkxF7n51RtVFNYRxIUe010TXgao6ILmEVSNlTnHp1CkZIjjExCV2tXW5yJuDAu+915AdTkdPfVwf7lejPiNHlbMRcm+WXbwZ9mBQXPS1dPGNscH/boPzLUebuOBRdmJyeyrfDO4GK899WIG4oVcAjU/0bgK5EarA+Y4FgsPiajaF9w5SZaM3+c8QBn0gBrvWxrWUI0W+IeX7KBbU7cr0frfX53yPuv/2Pqka7JTJiQk+932wVdknA2E4JIXjwDeAJWEF00SXA46mcoeSYmAkLNK2ECVbVQB8DFAz90ECBGz0knRGjd9iZusebGUBwAcMWITYhy04AYsI90C/uJkLY/M28x3/lJ4tinIjowMO3PfvdcC2gR7hkRozYtzMwluimMUW1yB24mjJ/4+achX7fn8wsz0f07Jm0Vqe8dALZzITYn1LCwohoCIVGZMRe8RNX0muiO9TwZqfka0y02D+OltcJhWm1jEq027LXTe8dT2AytuyjRTBhUdRjjfTpmCrEr+3U7q6Y5DbjyQlMCKEDDX/TxOhi3vCH+2KEOIsqVTbASR3r8CCyB4vHT787rtWthHZbgcF5tBgY0U/bFsByyt+GMRkxnF2u/3lhT3xzoo04i93TMzOrBnoKXAFtX04/Eyoj6udGUEI1+5vMdLuv+n3cZmMzl0n+CUNaPhkGksY7SVQoytK2g9I+QTwJ6LPne0OxfBgq6N88MgYh5mHR5UslUlKMiS2HJJwuPr4o9lrwhuCyVlMnXdo1ML7FyiduYJpdyHDt67j1zFCwKyCmXApV8o4yM5MlY6nAvMjMMkwX9QQLuSPnl2j9vlC787/qxOu8yD47BNuV8BdibCKG7aGJ3udnD5yILpzuAxbij3gv4O+rtoJWW210+cgwTodxQgxURvyG2J02p6rWYIxwskB00TNgMdVyvUPVo9FWEItzxOwvy4taEfS57o9KujYo0660fpxYATyzVJX1dDtwsDtalAYW8wEiDPThUSb0Von4/+uYxC39auWVcP+w2KEbK6dffT36do8pc86Kshaht7f0a920w71Gk5Kcg3QHzpuqJsNZwNEygynObQWW8x2zbqGlV4CxE2m7ebmCPgkriFZ2FHbSBGrpKKxEtPAoSuXoDxRnd/+0dEFxoKs4N8CvBoNLiIgxT2H9Yv7zeL+nxFsm/AqMiXuSiux5F0dIp4LwsfHz2waGALirJsMqiZ4XlkrcM2YfokYF/+8JpIa8L4i4tUsq63A9NJOi2mah8cU2U8dTw0uxM5wgnKVEC0TMqUqyFmPF4Zpx2nNraF5ONyogWieH9DFCmN1cinVqjC36fWcMG02JyDfDx/J3uGqKoQANvIM7L46q28oQ6WVmMRsLdwGLChOM6iTfShvuHHzvahMqIPotMc+3WIswcON2wHFOYAa2IVhUhW4LKtoP9AoSJ/IpJiaHPzDRSH908MSJEwfnnE3PiCJYUwkor/lHce8Qo0/RYNk6sKxIBRHDzvwKAxOoiz0oHj4lpzq3UllEehsTNeQe18vV1bVXg/J1264ExG9PenY89ujGx63f7Z1luD6UzaPT0WBhIdr6Pn66yi35MSUmGH7xzsyNRWE74zsVOOjuVPhLg7V9KZPjZ5Y5THzGwlYJugleB2akvFOXUyr9wolTLkxQK0n+5mdPOMuYi9hgzMVdYAZrAVjaxD/1CN8BOk7FLKeISlfrpT8nWvRfzFmvg5io0QTQq509ZivT2I0he7zJilf8oELQ2lZ2nwpU4vg0nVN9fpV3y4Jl2NBxizyk9xwnk34MAP3WyTBTzDIXLK5A58gF/roEaiS1Se9IDT9Qwy+Xugzcy2bEnldwFx/osYHVCT72RKoSlilDsax9uo/WJ/CHXiNeyxHmD5Tg5Hh98qV2bAkI510bskLi3NR8xCxdmCiqDrkvWEED7ZFTzV++07hlBuuNZNeX+gcZyIgJY5jv9xZK1KL0vz2+coOZxauUU8tiaTEKna28V6fP/mEw3Urvr+RnxHjZ688EgymeG/+t+r7vAwZzhphJUVrUSt1WKFfnSHSpwY968b46/J6h/k5EDX1mYDIsBv28KbHeZof9q2tRzMkiEo2OZVJnxNj1kqsjNpTiSaJECbcH/TYInDJYyxv7HiaGUSR7vIRKtAb4jvKPtWkrWXF6OXAOVOOzDYDBdLZhJgoLOy8QAzwEfHXENnHlMY2QyoixBaSxmp/SRF5NCL0M+t3ozX6ycsFK5toTLoR+Xxr4p4JIdE4qI4ZecCOIwgVgfUoNtc90Zp985A7W0oaXQ+yIVz/zYov47CZKZcTymEDjEUpU0HRglCzD2hUHqy1iBysSrMUZc5qHfBYIb7Sw55Y0MBkxPKcrs+wU+EvvIZkGu5N04BejWwP7BSVU+H1DEKcIHZ0EPbogZicg8jPSrTxlf4ZPGd0+Bw/vZPWb77SoYvQvE0FXGNIePx8LrIJHmO1OxNZ16HmDLgjsPMnUh4thZvtpSVVIN4m/PJKtg3XVrqOFIv6BM97Z2M1OvHGEm0jV0V2qgauW0xKwoh1yooV/d/ECPUqRNqar9/phgf9R0R4R07NCeJc7GeqWiLFRIOvoi5iSNEPdQelAiUC5wLQpi8fi7w27CUfjQL/ViB2shVBbs71c1409HBiR7O2ZmJSU6J3cfkjQMDDOTiR9IsbttjaR3wH0uE4J/9lz6045Mc5kaighHsIuSc097OsVNGTgrciih2kzfZXHaI+lNyYYUw1Mspd3DrsBxrgvF4Ue9oJeYwTDLduKBEOZog6IU73+SjC0MxyACQMPABOktEu4tCpm0+Z3e2drTxdSrMQENBUjw029hBK1lTzigMIkfi+hiHe+mfqCrkKkavnrClrMJKzF//9lFAT4u7zMOzChm6Y9KiZS0D9amHjJMGrN+7LxWrax/wYdPwx0OTTBNd22toKO8dRQncfnSPq4B2tb0rW0+3bEianwlqI4B0YoRqL+jJw0+ghENKLGXDg6Jsb988IOpZWP1+RNz93s2/dTnQ5ER0ZvOTTyu+rxfZdUzetc2eGzcaGYmSm1uR+0SarjjRaaB4bMPX5+ZBY1sxgDzTS1TEQIBj0CCm8TLSQgHXLVR1KEasidkIp2b/lOVem4Z5rnKwKz/0l+lFRqG72+6I4pp+YYimAwxnHDTW3hlywFrrsLGRT/532dfbLc38BZYKMLJAvOyWrXuZ022QvGqOhOiQYOhD/7UsCk7iDUeoY4s4Pt10seBZPuEhsy/idMagEr/ifR9Ptg2cNpe+dQUldoR5z7iW75l8fFCt5ZYBNWDhPtFLg2d2k4/u2wGWUitLsb6CpS1N1dAlt+FC3Cejli9mgFE60Ww3PigCNgZpZJ9+FgTYd7Klu8+t6ldWC8VQr+3u41JbVHEep2/2jCMPa8Cu+c5V5x7ok9jM0aWzx5+mhHTDVrT4prjKJKcqRSc+rJA9s79rjc9+nLa8V+Jl+ZVBLqwXT4YLuDml9oS46khbXQ39AWRXP75DOcNoNhs8udk8KKUkvn+VYfWnyxd+iyZct6DL595FC/65vnPf2tw+cxR4tcIr/8JNFvd7u9JWCuhQpe6NgZ12qcBHq2en7YEAdgPUZs+ze2ka7ZMYdhN7wmbt06sWRtxTCoW1sfYFID3QKxuWY/TojOeZ0W6x3E+2VUpZp4mRfolYYIQ+gJVsV+xtEaEFsbSs0Ypqyck6lTE8rBgLnfs429mfJ3E5rlW6MCiYnyuitMOZZNHrzTeemvA/twvppMQlGYzPm+Z2PCoDvANlx4MybCVBALmkKlxkjVZ+z2p5VjpibOmAYMQ40t0Bfcc9EMHNUCbEPXv2NOXKGhDBE9qKoJnazHgdy0o5G7nNfdAJNsQOo2u724vR4Y+ERXsBELFJrQw583IBEj9Wy78JIxZYM8d68sAbMUr1DvoiulU4ZsUbf19WqCeaGHEJfLzPV+NB7MV3CUYk4DHuYkjG1er91Mwa+Wcdixr+pDTERwezBTSvLSwTWlmIqbvNE8iAkDlYLN6PUmV+qh96kJkGFxarglmMqrU0JxcKHvBIowUaEPfEC/eExYaBzY4KMlxEh2r0fjTRikPhG3XFKbVvfOoDpnymhWMnCEIcJCv4CtPVr8O7j8RD2pOn4BkqatTy5u9HJmv95ZGOkJiXe0ayh94p7Ng9mKfQrDhZv3NBE2/NPnwBUSNCCp7b7zVYce2FNmkDS+QWhmO+DKRYSFI8CGuDbBhpuLxlCBYkwV3ZoBY1ivPTuir7mvufM8WxUncaIY8/fX9qv9ga/iud5DiWPB+ti1Fj62FfRKTjvy6NiZ1AGglTI2/JZLTKXvkYOZmlu7DYXgBYQdt7QZwVTFM0XMDGyXArakYAqW3LKuVQfgvFrG+0cOTVO+bI01bVKxxJWS2HF0VeHC5vHlIOU0Jba7JmWCD/L7vC1dQbvk6KKN8173lmG5/peN2V3L8aMtqzeWfRJYPhuMs1AgLNoXbEvKA6y/oCZkZeBHr5ZuunrkEWFeNs4oCYhmPjgzM7WV/4AGYJo0RFjoMdgGJhqP5yTVvG3tP3F5+PTO4HTspH7ZCIP9LHnIBu+vHNe24Z5pYCp+3B+9BBvjdkiueTbG/1aaV91fxq6RDIWzmozOLQwuDp8VArXgwyYr2IoTWxCxAhM1yh8k5hA5zhp85/HSyJ0BcWAm5sQmAx0HmzPCyMjoKNVXiRx7d/X84Gd+29ZC7TB1ufx0tG2t47Hk+4ZwdverpUN/9TzsCnVvs5zogf3ABr16DxHGtzXx44we/dY8bPVBYFAF1Je4bExsNqjMcM6jCoqJGqbq923KodWFG4oTOpVAfYtGRA/suBdsU0RMtSOmCFFKHHOupjX71XNuV6grsyu8tk7rWvCE19vOV/9b2D8EbFZ5YOIHH+xKmLHXDczk4OXq02muc/iOnT9HvxhxbV/M/LSn05eMP7D8dv9ldlOmPAi9OPpObqX7hkmeOpPoIDmRuAPureeWUj52SLjnB1/+Enw0tcPN6UvuvJvT+9jZ4aoianFRhtIorOZR08CHkiZbcjfGfhA/a1rK+mvaonpmt/O2ml3SYOzu7R8NWtQzJv/xyesju08425hg+mZUqN4iaomdtszuQWOECYvtG2vrHKbNCkjuElY2dOPNqvuje8xpjKmTdmjYgTGdodEVgsHmhZTv8evStij1t9zqHDsZqRkeJ3Zw6hv1Bls1sVPEF4vG3T353WDHTA+EBCZiZXH4MNievdunTl7TLzQDa26J+4bYBLqpBGzLsOK8R+wG2jagI6smQh1xK2g5Izzx0guXC2PcN+bn57/80eWD9WAazx8QwsRWUcXiL8F8N+KuRJyeFDuusPOSA92nyNQzsCC8KTb9t2mP7iKKiE2jwqYnYJqK8iHe0WUxpVXvXHwUhSn6g2qlx34UfyoF43VBmNg6xZk+YBSvbaeeLXzZ+T+3HQlFSk7S0zfGLcBYXs8psX1oeRAY5NYnOezHNv/pnYGlcgUMlGj6hQ22TfiPG//SubCHJ3OypO/m48BzwVguiLwVFDGgR6dLk1WXztXiXFjHzWC0qYi8FbAHcxjrSs/rWUigmNQG/XAGGC2QEhvHOaL55LMsbazSbB3tBoIJ5v1ETIANs9zOZ+XI2h+HxIiuaQem6FWlQFQTaFKRozcEzfKNaiIMUcOz0rMd/3liit2EZaGhPZRCQ5d9bXfs4JxsWYa9Ko6lE7GpuwEUjoJInqL2h4seVXqDqX6+26//sRN2PS7mLL98oN/4vptz5zW9+dv5+S8n/7hgQ1mryOODnn3hn+idHN5+d8DcK2P7rPTZG+da8CRFeUTGS6lk4taUaV177Q1q2Wn9jN3tExqevvVlZOyCmMLKPN/vch6kEw85M52bg1aDllc2rt3hIsfr7/9cDmZZ29X1idcNh9lQ1xxS1s0I93/R81zT/zyXYbN78LNdzm+ac4j1G9U4ZY1+HOzpAzYtpM+p6GZtRp6lAhpFTMWcS9l6foVCauSZOoOo0OvnyxI7zYa3RZB3bJscbPrWnSkfCyiat/hDrN7UjGInF6y9rE+OZb2r1zx8lbRnIrx93Ab88nSCHHkQk6BYJra0LuJnZSeVj9/pbpduj7GqT4KTk3oyysx61ONIdVXly6Jf/dvP8oK3WsGuc78b6OhsWkGN27R16wdEDPTc5d+lSxf/XZ4Dw533zIormQ3/71h7Oq2JQAnLJpMX1uezqNrocBpaBP/fS2qKjXsb0SX4C7Qv/R4RDub4wF8Cb0pfhITPxoFt6HplfQFYU/N/Ewl0PNiCG5Gtp0TZ27VeuBLWuvaKi2uwt9wnKGjdypaz+mzrNHZsu/VXWsydcXhIQMCA3c6B8e3bR0Sc8ktISN4+0Nu7oWdi4r927vL3/6jLBz83v3XpWXFxdPSXkyaFhb1oOzUy8tWiEa1WucSWLVRewFvUs+eFBfuaHR06bsy9mJiH76e6v/zs3Mb5hfn5hfPnn5/ZjUgQmoFVMAd8EVaSK05cVe6oDz6a4+h4Njs9XSbLysgYPryxvX1UZuafAzQeVJfcCfEJYkgvSqTgALC+5A+Rdj+Oeb4lVoZywfrK7Sh5C2AaAdbXQUHeBorJYH3buuG3Yqxyh4H1rRK0JyswsVFYMd0LbMAaRP6A3m228GY3SmwSwuPAJhyi6oNqNwDA+QdEVDK0iQdRzQlyoioWnh8RzgsHm+DVG6vO1j5Rr+PVzUvlC//ob91w1xfPJrVd5BK8YGjMy/y0Np3nVfnu7zdydM7zULt/Zmc1Jjojqu1jSlXqLDmG8wPBRmydgMU1weErpNvCOtwoKYjz6dNubkB8+EDP0z8Xf/nrK5fgC8oRLbxb+TQvd8n+6gOjcy72eHDwrGx4pnpEnfgjKvWM0sdgTWwfczRGpxs7lvmAqdgRfdKrfNbYPcoRTW64s8ulQWG/rLrW82iM+/y7m57Oy13y6f0zW3Ke9xA/o/SPiDDOZCbCjWAr9lOdq3WmovpsPMGO6LQ4n1mqZ3S7507/jz7yT3oRpZmdsRwRFbQLbEQHpJO/9KZWbrPnrx4h+YEwv+aP1akuurgCbMMkRJRWtAc1T2rFSyO0lyPRMxNBqVh9r1nHF2Ab1smwuC9bMGJuarAsd0SU6E5QiaZEiY4EG9EZiS4inPg7JUy3dot6iVSt61JArSli7nazOLapOJru5wa7feVWuMiMvUnG47aDbnfhfWAj5tVseHDOlkxKVIRfwILYHlp4Ti9QK/kaWzOWxViv6b1G6TdMU3GLi8e6N3mr7skY9ZUD2IgXCqJL/h1YTcVzKq6JHKZaNONHcWArHiqIDkU0WM85gSjJn4GK8/fq/rwrwWa81KnPVGwGK4qn6sq1LuoPqpPtncFvZI+0Y7XcByyNvfwW03zvK57TEfkDvlgBNiTiY4QwJgSjjrnrwKoCa+I6iEZROVFBH4NtSUy7HYXxnKposBL2EnVMaig2gK0JuRLhvBesz+E6IjqwfTv4C4fPckTEFPnwF65ZZxREC/WPg7/wpZRqix8Eu3j4i0HNq1UHvjwQqmoBUv4Ssc/3wd/7TfYDC/m/A9R0juP0WiMAAAAASUVORK5CYII=" vertex="1" parent="1">
          <mxGeometry x="397.5" y="285" width="80" height="60" as="geometry" />
        </mxCell>
      </root>
    </mxGraphModel>
  </diagram>
</mxfile>
